<svg width="144" height="50" viewBox="0 0 144 50" fill="none" xmlns="http://www.w3.org/2000/svg">
<path d="M56.151 23.3865C54.1667 15.2729 70.711 3.54811 70.711 3.54811C70.711 3.54811 63.2503 18.0678 63.0002 26.5C62.7501 34.9323 63.7267 39.9184 63.7267 39.9184C61.0002 35.5 58.1353 31.5 56.151 23.3865Z" fill="#D8AB37"/>
<path d="M66.4922 34.7724C64.5231 26.1005 69.3497 17.1127 69.3497 17.1127C69.3497 17.1127 70.0045 28.3536 72.3962 35.3051C74.7879 42.2565 64.918 48.1348 64.918 48.1348C64.918 48.1348 68.4613 43.4442 66.4922 34.7724Z" fill="#D8AB37"/>
<path d="M83.1 19.675H77.1V17.5H91.575V19.675H85.575V35H83.1V19.675ZM98.0648 21.625C99.8982 21.625 101.298 22.075 102.265 22.975C103.248 23.875 103.74 25.2167 103.74 27V35H101.465V33.25C101.065 33.8667 100.49 34.3417 99.7398 34.675C99.0065 34.9917 98.1315 35.15 97.1148 35.15C95.6315 35.15 94.4398 34.7917 93.5398 34.075C92.6565 33.3583 92.2148 32.4167 92.2148 31.25C92.2148 30.0833 92.6398 29.15 93.4898 28.45C94.3398 27.7333 95.6898 27.375 97.5398 27.375H101.34V26.9C101.34 25.8667 101.04 25.075 100.44 24.525C99.8398 23.975 98.9565 23.7 97.7898 23.7C97.0065 23.7 96.2398 23.8333 95.4898 24.1C94.7398 24.35 94.1065 24.6917 93.5898 25.125L92.5898 23.325C93.2732 22.775 94.0898 22.3583 95.0398 22.075C95.9898 21.775 96.9982 21.625 98.0648 21.625ZM97.5148 33.3C98.4315 33.3 99.2232 33.1 99.8898 32.7C100.557 32.2833 101.04 31.7 101.34 30.95V29.1H97.6398C95.6065 29.1 94.5898 29.7833 94.5898 31.15C94.5898 31.8167 94.8482 32.3417 95.3648 32.725C95.8815 33.1083 96.5982 33.3 97.5148 33.3ZM111.981 35.15C110.898 35.15 109.856 35.0083 108.856 34.725C107.856 34.425 107.073 34.05 106.506 33.6L107.506 31.7C108.09 32.1167 108.798 32.45 109.631 32.7C110.465 32.95 111.306 33.075 112.156 33.075C114.256 33.075 115.306 32.475 115.306 31.275C115.306 30.875 115.165 30.5583 114.881 30.325C114.598 30.0917 114.24 29.925 113.806 29.825C113.39 29.7083 112.79 29.5833 112.006 29.45C110.94 29.2833 110.065 29.0917 109.381 28.875C108.715 28.6583 108.14 28.2917 107.656 27.775C107.173 27.2583 106.931 26.5333 106.931 25.6C106.931 24.4 107.431 23.4417 108.431 22.725C109.431 21.9917 110.773 21.625 112.456 21.625C113.34 21.625 114.223 21.7333 115.106 21.95C115.99 22.1667 116.715 22.4583 117.281 22.825L116.256 24.725C115.173 24.025 113.898 23.675 112.431 23.675C111.415 23.675 110.64 23.8417 110.106 24.175C109.573 24.5083 109.306 24.95 109.306 25.5C109.306 25.9333 109.456 26.275 109.756 26.525C110.056 26.775 110.423 26.9583 110.856 27.075C111.306 27.1917 111.931 27.325 112.731 27.475C113.798 27.6583 114.656 27.8583 115.306 28.075C115.973 28.275 116.54 28.625 117.006 29.125C117.473 29.625 117.706 30.325 117.706 31.225C117.706 32.425 117.19 33.3833 116.156 34.1C115.14 34.8 113.748 35.15 111.981 35.15ZM128.156 34.225C127.806 34.525 127.372 34.7583 126.856 34.925C126.339 35.075 125.806 35.15 125.256 35.15C123.922 35.15 122.889 34.7917 122.156 34.075C121.422 33.3583 121.056 32.3333 121.056 31V23.725H118.806V21.75H121.056V18.85H123.456V21.75H127.256V23.725H123.456V30.9C123.456 31.6167 123.631 32.1667 123.981 32.55C124.347 32.9333 124.864 33.125 125.531 33.125C126.264 33.125 126.889 32.9167 127.406 32.5L128.156 34.225ZM142.593 28.45C142.593 28.6333 142.576 28.875 142.543 29.175H131.793C131.943 30.3417 132.451 31.2833 133.318 32C134.201 32.7 135.293 33.05 136.593 33.05C138.176 33.05 139.451 32.5167 140.418 31.45L141.743 33C141.143 33.7 140.393 34.2333 139.493 34.6C138.609 34.9667 137.618 35.15 136.518 35.15C135.118 35.15 133.876 34.8667 132.793 34.3C131.709 33.7167 130.868 32.9083 130.268 31.875C129.684 30.8417 129.393 29.675 129.393 28.375C129.393 27.0917 129.676 25.9333 130.243 24.9C130.826 23.8667 131.618 23.0667 132.618 22.5C133.634 21.9167 134.776 21.625 136.043 21.625C137.309 21.625 138.434 21.9167 139.418 22.5C140.418 23.0667 141.193 23.8667 141.743 24.9C142.309 25.9333 142.593 27.1167 142.593 28.45ZM136.043 23.65C134.893 23.65 133.926 24 133.143 24.7C132.376 25.4 131.926 26.3167 131.793 27.45H140.293C140.159 26.3333 139.701 25.425 138.918 24.725C138.151 24.0083 137.193 23.65 136.043 23.65Z" fill="white"/>
<path d="M2.075 17.5H10.025C11.925 17.5 13.6 17.8667 15.05 18.6C16.5167 19.3167 17.65 20.3333 18.45 21.65C19.2667 22.9667 19.675 24.5 19.675 26.25C19.675 28 19.2667 29.5333 18.45 30.85C17.65 32.1667 16.5167 33.1917 15.05 33.925C13.6 34.6417 11.925 35 10.025 35H2.075V17.5ZM9.825 31.675C11.575 31.675 12.9667 31.1917 14 30.225C15.05 29.2417 15.575 27.9167 15.575 26.25C15.575 24.5833 15.05 23.2667 14 22.3C12.9667 21.3167 11.575 20.825 9.825 20.825H6.125V31.675H9.825ZM35.6293 28.325C35.6293 28.375 35.6043 28.725 35.5543 29.375H25.3793C25.5626 30.2083 25.996 30.8667 26.6793 31.35C27.3626 31.8333 28.2126 32.075 29.2293 32.075C29.9293 32.075 30.546 31.975 31.0793 31.775C31.6293 31.5583 32.1376 31.225 32.6043 30.775L34.6793 33.025C33.4126 34.475 31.5626 35.2 29.1293 35.2C27.6126 35.2 26.271 34.9083 25.1043 34.325C23.9376 33.725 23.0376 32.9 22.4043 31.85C21.771 30.8 21.4543 29.6083 21.4543 28.275C21.4543 26.9583 21.7626 25.775 22.3793 24.725C23.0126 23.6583 23.871 22.8333 24.9543 22.25C26.0543 21.65 27.2793 21.35 28.6293 21.35C29.946 21.35 31.1376 21.6333 32.2043 22.2C33.271 22.7667 34.1043 23.5833 34.7043 24.65C35.321 25.7 35.6293 26.925 35.6293 28.325ZM28.6543 24.3C27.771 24.3 27.0293 24.55 26.4293 25.05C25.8293 25.55 25.4626 26.2333 25.3293 27.1H31.9543C31.821 26.25 31.4543 25.575 30.8543 25.075C30.2543 24.5583 29.521 24.3 28.6543 24.3ZM38.2258 16.45H42.1258V35H38.2258V16.45ZM45.7453 21.55H49.6453V35H45.7453V21.55ZM47.6953 19.675C46.9786 19.675 46.3953 19.4667 45.9453 19.05C45.4953 18.6333 45.2703 18.1167 45.2703 17.5C45.2703 16.8833 45.4953 16.3667 45.9453 15.95C46.3953 15.5333 46.9786 15.325 47.6953 15.325C48.412 15.325 48.9953 15.525 49.4453 15.925C49.8953 16.325 50.1203 16.825 50.1203 17.425C50.1203 18.075 49.8953 18.6167 49.4453 19.05C48.9953 19.4667 48.412 19.675 47.6953 19.675Z" fill="white"/>
</svg>
